# Made in Blockbench 4.12.4
mtllib board.mtl

o cuboid
v 0.4375 1.21875 -0.12499999999999997
v 0.4375 1.03125 -0.12500000000000003
v 0.4375 1.21875 -0.04687499999999998
v 0.4375 1.03125 -0.04687500000000002
v -0.4375 1.21875 -0.12499999999999997
v -0.4375 1.03125 -0.12500000000000003
v -0.4375 1.21875 -0.04687499999999998
v -0.4375 1.03125 -0.04687500000000002
v 0.4375 1.09375 -0.125
v 0.4375 1.09375 -0.04687500000000001
v 0.421875 1.15625 -0.125
v 0.421875 1.15625 -0.04687499999999999
v -0.421875 1.09375 -0.04687500000000001
v -0.4375 1.15625 -0.04687499999999999
v -0.421875 1.09375 -0.125
v -0.4375 1.15625 -0.125
vt 0.17920625 0.66796875
vt 0.1953125 0.66796875
vt 0.1953125 0.6875
vt 0.17920625 0.6875
vt 0.14891875 0.6875
vt 0.13329375 0.6875
vt 0.13329375 0.66796875
vt 0.14891875 0.66796875
vt 0.453125 0.875
vt 0.44921875 0.890625
vt 0.234375 0.890625
vt 0.234375 0.875
vt 0 0.75
vt 0 0.734375
vt 0.21484375 0.734375
vt 0.21875 0.75
vt 0.5625 0.78125
vt 0.5625 0.796875
vt 0.34375 0.796875
vt 0.34375 0.78125
vt 0.5625 0.765625
vt 0.34375 0.765625
vt 0.34375 0.75
vt 0.5625 0.75
vt 0.22704375 0.6875
vt 0.21141875 0.6875
vt 0.21141875 0.66796875
vt 0.22704375 0.66796875
vt 0.21141875 0.6875
vt 0.1953125 0.6875
vt 0.1953125 0.66796875
vt 0.21141875 0.66796875
vt 0.21875 0.703125
vt 0.21875 0.71875
vt 0.00390625 0.71875
vt 0 0.703125
vt 0.21875 0.71875
vt 0.21484375 0.734375
vt 0 0.734375
vt 0.00390625 0.71875
vt 0.10108125 0.66796875
vt 0.1171875 0.66796875
vt 0.1171875 0.6875
vt 0.10108125 0.6875
vt 0.1171875 0.66796875
vt 0.13329375 0.66796875
vt 0.13329375 0.6875
vt 0.1171875 0.6875
vt 0.234375 0.921875
vt 0.23828125 0.90625
vt 0.453125 0.90625
vt 0.453125 0.921875
vt 0.23828125 0.90625
vt 0.234375 0.890625
vt 0.44921875 0.890625
vt 0.453125 0.90625
vn 0.9701425001453319 -0.24253562503633297 -5.3853727041438086e-17
vn -1 0 0
vn 0 2.220446049250313e-16 -1
vn 0 -2.220446049250313e-16 1
vn 0 1 2.220446049250313e-16
vn 0 -1 -2.220446049250313e-16
vn 1 0 0
vn 0.9701425001453319 0.24253562503633297 5.3853727041438086e-17
vn 0 -2.220446049250313e-16 1
vn 0 -2.220446049250313e-16 1
vn -0.9701425001453319 0.24253562503633297 5.3853727041438086e-17
vn -0.9701425001453319 -0.24253562503633297 -5.3853727041438086e-17
vn 0 2.220446049250313e-16 -1
vn 0 2.220446049250313e-16 -1
usemtl m_7259419d-3d71-ebc0-7b28-b30f0b3e6b63
f 3/1/1 12/2/1 11/3/1 1/4/1
f 5/5/2 16/6/2 14/7/2 7/8/2
f 1/9/3 11/10/3 16/11/3 5/12/3
f 7/13/4 14/14/4 12/15/4 3/16/4
f 3/17/5 1/18/5 5/19/5 7/20/5
f 6/21/6 2/22/6 4/23/6 8/24/6
f 2/25/7 9/26/7 10/27/7 4/28/7
f 9/29/8 11/30/8 12/31/8 10/32/8
f 4/33/9 10/34/9 13/35/9 8/36/9
f 10/37/10 12/38/10 14/39/10 13/40/10
f 8/41/11 13/42/11 15/43/11 6/44/11
f 13/45/12 14/46/12 16/47/12 15/48/12
f 6/49/13 15/50/13 9/51/13 2/52/13
f 15/53/14 16/54/14 11/55/14 9/56/14
o cuboid
v 0.44117291483224347 0.980827292512079 -0.1249999966399594
v 0.432994279701243 0.7935057509654808 -0.12500000222257632
v 0.4411729146293182 0.9808272901926325 -0.046874996639959435
v 0.4329942794983177 0.7935057486460343 -0.046875002222576345
v -0.4329942790518821 1.018994256456748 -0.12499999777742357
v -0.42554791418288257 0.8316727149101498 -0.1250000033600405
v -0.4329942792548074 1.0189942541373016 -0.04687499777742361
v -0.42554791438580786 0.8316727125907033 -0.046875003360040524
v -0.4044704907622156 0.925303742607882 -0.1249999996382959
v -0.40447049096514087 0.9253037402884354 -0.04687499963829591
v -0.4384467024725491 0.8941132287590159 -0.12500000149916818
v -0.43844670267547436 0.8941132264395694 -0.04687500149916822
v 0.4228217029189847 0.9183867763437664 -0.04687499850083174
v 0.4294704912086512 0.8434462624949004 -0.04687500036170405
v 0.42282170312191 0.9183867786632129 -0.12499999850083171
v 0.4294704914115765 0.8434462648143468 -0.125000000361704
vt 0.15625 0.640625
vt 0.1437328125 0.640625
vt 0.1437328125 0.62109375
vt 0.15625 0.62109375
vt 0.09375 0.84375
vt 0.109375 0.84375
vt 0.109375 0.859375
vt 0.09375 0.859375
vt 0.030463650753593724 1
vt 0.019232400753593726 0.9886890625
vt 0.20787458825359373 0.88073125
vt 0.21543552575359373 0.89070625
vt 0.006419887773228106 0.8123819688558528
vt 0.008727700273228112 0.8000788438558528
vt 0.2257277002732281 0.8123819688558528
vt 0.22073395027322812 0.8275179063558528
vt 0.5625 0.71875
vt 0.5625 0.734375
vt 0.34375 0.734375
vt 0.34375 0.71875
vt 0.5625 0.703125
vt 0.34375 0.703125
vt 0.34375 0.6875
vt 0.5625 0.6875
vt 0.140625 1
vt 0.109375 1
vt 0.109375 0.984375
vt 0.140625 0.984375
vt 0.40625 0.609375
vt 0.390625 0.609375
vt 0.390625 0.59375
vt 0.40625 0.59375
vt 0.2279551122267719 0.7812104045504266
vt 0.2181846875548906 0.8036615985342976
vt 0.01252944224347427 0.7816581657360933
vt 0.009762283188979787 0.765625
vt 0.21818468755489057 0.8036615985342976
vt 0.2257277002732281 0.8123819688558528
vt 0.00872800020980205 0.8000788608611853
vt 0.012528775489186267 0.781658094398826
vt 0.10865312499999999 0.62109375
vt 0.1249234375 0.62109375
vt 0.12492343749999998 0.640625
vt 0.10865312499999999 0.640625
vt 0.12492343749999998 0.62109375
vt 0.1437328125 0.62109375
vt 0.1437328125 0.640625
vt 0.12492343749999998 0.640625
vt 0.19155669521906052 0.8503687551092851
vt 0.19624515824316816 0.8659496120982519
vt 0.02208656927039218 0.9775166943452716
vt 0.003314474246406268 0.9617974043547862
vt 0.19624515824316816 0.8659496120982519
vt 0.20787458825359373 0.88073125
vt 0.019233467794182613 0.988688451844614
vt 0.022085565220039544 0.9775173375462124
vn 0.9975199202963321 0.07038471859714572 4.680647617366557e-9
vn -0.9793224184794185 -0.20230571090214686 -8.54997178944285e-9
vn 3.0875918877430137e-9 3.044014836117861e-8 -0.9999999999999996
vn -3.5002403763604673e-9 -3.750875305415332e-8 0.9999999999999993
vn 0.043619387365335986 0.9990482215818574 2.9773956842390136e-8
vn -0.04441168462196497 -0.9990133143602434 -2.9774978432239424e-8
vn -0.9566474710810623 -0.2912483752301604 -1.113168611401335e-8
vn -0.6762623215696698 0.7366608937803065 2.0114109618240414e-8
vn -1.5449216749358153e-9 -2.0332253955730876e-8 0.9999999999999999
vn -4.5068662720115605e-9 -5.475209772344676e-8 0.9999999999999986
vn 0.9594222386897805 -0.2819733460940765 -5.879437667661893e-9
vn 0.9960873859854149 0.08837374882137303 5.211001483502604e-9
vn 1.6201195356303357e-9 2.932617046420354e-8 -0.9999999999999996
vn 2.774532177650451e-9 2.5077484330264177e-8 -0.9999999999999997
usemtl m_7259419d-3d71-ebc0-7b28-b30f0b3e6b63
f 18/57/15 32/58/15 30/59/15 20/60/15
f 24/61/16 28/62/16 27/63/16 22/64/16
f 22/65/17 27/66/17 32/67/17 18/68/17
f 20/69/18 30/70/18 28/71/18 24/72/18
f 19/73/19 17/74/19 21/75/19 23/76/19
f 22/77/20 18/78/20 20/79/20 24/80/20
f 21/81/21 25/82/21 26/83/21 23/84/21
f 25/85/22 27/86/22 28/87/22 26/88/22
f 23/89/23 26/90/23 29/91/23 19/92/23
f 26/93/24 28/94/24 30/95/24 29/96/24
f 19/97/25 29/98/25 31/99/25 17/100/25
f 29/101/26 30/102/26 32/103/26 31/104/26
f 17/105/27 31/106/27 25/107/27 21/108/27
f 31/109/28 32/110/28 27/111/28 25/112/28
o cuboid
v 0.4375 0.78125 -0.12499999999999997
v 0.421875 0.59375 -0.12500000000000003
v 0.4375 0.78125 -0.04687499999999998
v 0.421875 0.59375 -0.04687500000000002
v -0.4375 0.78125 -0.12499999999999997
v -0.4375 0.59375 -0.12500000000000003
v -0.4375 0.78125 -0.04687499999999998
v -0.4375 0.59375 -0.04687500000000002
v -0.4375 0.71875 -0.125
v -0.4375 0.71875 -0.04687499999999999
v -0.421875 0.6875 -0.125
v -0.421875 0.6875 -0.046875
v 0.421875 0.75 -0.046874999999999986
v 0.4375 0.65625 -0.04687500000000001
v 0.421875 0.75 -0.12499999999999997
v 0.4375 0.65625 -0.125
vt 0.21875 0.640625
vt 0.20264375 0.640625
vt 0.20264375 0.62109375
vt 0.21875 0.62109375
vt 0 0.84375
vt 0.03125 0.84375
vt 0.03125 0.859375
vt 0 0.859375
vt 0.16406212795624792 1
vt 0.16796837795624792 0.9765625
vt 0.3828121279562479 0.984375
vt 0.3789058779562479 1
vt 0.46484375 0.8125
vt 0.46875 0.828125
vt 0.25390625 0.8359375
vt 0.25 0.8125
vt 0.5625 0.65625
vt 0.5625 0.671875
vt 0.34375 0.671875
vt 0.34375 0.65625
vt 0.5625 0.640625
vt 0.34375 0.640625
vt 0.34375 0.625
vt 0.5625 0.625
vt 0.3715546875 0.609375
vt 0.3559296875 0.609375
vt 0.3559296875 0.58984375
vt 0.3715546875 0.58984375
vt 0.3559296875 0.609375
vt 0.3471953125 0.609375
vt 0.3471953125 0.58984375
vt 0.3559296875 0.58984375
vt 0.25 0.859375
vt 0.25 0.84375
vt 0.46484375 0.8515625
vt 0.46875 0.859375
vt 0.25 0.84375
vt 0.25390625 0.8359375
vt 0.46875 0.828125
vt 0.46484375 0.8515625
vt 0.40625 0.984375
vt 0.421875 0.984375
vt 0.421875 1
vt 0.40625 1
vt 0.1788828125 0.62109375
vt 0.20264375 0.62109375
vt 0.20264375 0.640625
vt 0.1788828125 0.640625
vt 0.3828128720437521 0.9531240946902576
vt 0.37890655589050937 0.9609379052534314
vt 0.1640624385361766 0.9687498575126915
vt 0.16406327711708063 0.9531257134180119
vt 0.37890655589050937 0.9609379052534314
vt 0.3828121279562479 0.984375
vt 0.16796975057742042 0.9765625499134971
vt 0.16406358231482232 0.9687498159237279
vn 0.9701425001453319 -0.24253562503633297 -5.3853727041438086e-17
vn -0.9863939238321437 0.1643989873053573 3.65039081862933e-17
vn 0 2.220446049250313e-16 -1
vn 0 -2.220446049250313e-16 1
vn 0 1 2.220446049250313e-16
vn 0 -1 -2.220446049250313e-16
vn -1 0 0
vn -0.8944271909999161 -0.44721359549995804 -9.930136612989094e-17
vn 0 -2.220446049250313e-16 1
vn 0 -2.220446049250313e-16 1
vn 0.8944271909999161 -0.44721359549995804 -9.930136612989094e-17
vn 0.9863939238321437 0.1643989873053573 3.65039081862933e-17
vn 3.289549702593056e-17 -2.3849235343799656e-16 -1
vn 5.415722071342227e-18 3.709769618869426e-16 -1
usemtl m_7259419d-3d71-ebc0-7b28-b30f0b3e6b63
f 34/113/29 48/114/29 46/115/29 36/116/29
f 40/117/30 44/118/30 43/119/30 38/120/30
f 38/121/31 43/122/31 48/123/31 34/124/31
f 36/125/32 46/126/32 44/127/32 40/128/32
f 35/129/33 33/130/33 37/131/33 39/132/33
f 38/133/34 34/134/34 36/135/34 40/136/34
f 37/137/35 41/138/35 42/139/35 39/140/35
f 41/141/36 43/142/36 44/143/36 42/144/36
f 39/145/37 42/146/37 45/147/37 35/148/37
f 42/149/38 44/150/38 46/151/38 45/152/38
f 35/153/39 45/154/39 47/155/39 33/156/39
f 45/157/40 46/158/40 48/159/40 47/160/40
f 33/161/41 47/162/41 41/163/41 37/164/41
f 47/165/42 48/166/42 43/167/42 41/168/42
o cuboid
v -6.938893903907228e-18 1.25 0.08838834764831843
v 0.08838834764831843 1.25 6.938893903907228e-18
v -6.938893903907228e-18 0 0.08838834764831843
v 0.08838834764831843 0 6.938893903907228e-18
v -0.08838834764831843 1.25 -6.938893903907228e-18
v 6.938893903907228e-18 1.25 -0.08838834764831843
v -0.08838834764831843 0 -6.938893903907228e-18
v 6.938893903907228e-18 0 -0.08838834764831843
vt 0.28125 0.796875
vt 0.25 0.796875
vt 0.25 0.484375
vt 0.28125 0.484375
vt 0.328125 0.484375
vt 0.328125 0.796875
vt 0.296875 0.796875
vt 0.296875 0.484375
vt 0 0.875
vt 0.03125 0.875
vt 0.03125 0.90625
vt 0 0.90625
vt 0.078125 0.859375
vt 0.078125 0.890625
vt 0.046875 0.890625
vt 0.046875 0.859375
vt 0.03125 0.375
vt 0.03125 0.6875
vt 0 0.6875
vt 0 0.375
vt 0.078125 0.6875
vt 0.046875 0.6875
vt 0.046875 0.375
vt 0.078125 0.375
vn 0.7071067811865475 0 0.7071067811865476
vn -0.7071067811865475 0 -0.7071067811865476
vn 0 1 0
vn 0 -1 0
vn -0.7071067811865476 0 0.7071067811865475
vn 0.7071067811865476 0 -0.7071067811865475
usemtl m_7259419d-3d71-ebc0-7b28-b30f0b3e6b63
f 50/169/43 49/170/43 51/171/43 52/172/43
f 55/173/44 53/174/44 54/175/44 56/176/44
f 53/177/45 49/178/45 50/179/45 54/180/45
f 52/181/46 51/182/46 55/183/46 56/184/46
f 51/185/47 49/186/47 53/187/47 55/188/47
f 54/189/48 50/190/48 52/191/48 56/192/48
o cuboid
v 0.0031249999999999993 1.154602939802294 -0.04570874489557408
v 0.015625 1.2304778744356806 -0.21762585950136104
v 0.0031249999999999993 1.148729860922382 -0.047846370791359505
v 0.015625 1.2011124800361208 -0.2283139889802882
v -0.0031249999999999993 1.154602939802294 -0.04570874489557408
v -0.015625 1.2304778744356806 -0.21762585950136104
v -0.0031249999999999993 1.148729860922382 -0.047846370791359505
v -0.015625 1.2011124800361208 -0.2283139889802882
vt 0.125 1
vt 0 1
vt 0 0.96875
vt 0.125 0.96875
vt 0.125 0.96875
vt 0.125 1
vt 0 1
vt 0 0.96875
vt 0 0.875
vt 0.125 0.875
vt 0.125 1
vt 0 1
vt 0.125 0.875
vt 0.125 1
vt 0 1
vt 0 0.875
vt 0.125 0.96875
vt 0.125 1
vt 0 1
vt 0 0.96875
vt 0.125 1
vt 0 1
vt 0 0.96875
vt 0.125 0.96875
vn 0.997785157856609 -0.022750841513222826 0.06250742333117056
vn -0.997785157856609 -0.022750841513222826 0.06250742333117056
vn 0 0.9148605084543353 0.4037700460295128
vn 0 -0.9603621914807812 -0.27875519936717175
vn 0 -0.34202014332566866 0.9396926207859084
vn 0 0.34202014332566866 -0.9396926207859084
usemtl none
f 58/193/49 57/194/49 59/195/49 60/196/49
f 63/197/50 61/198/50 62/199/50 64/200/50
f 61/201/51 57/202/51 58/203/51 62/204/51
f 60/205/52 59/206/52 63/207/52 64/208/52
f 59/209/53 57/210/53 61/211/53 63/212/53
f 62/213/54 58/214/54 60/215/54 64/216/54