# Made in Blockbench 4.12.4
mtllib paper.mtl

o plane
v 0.375 1.1875 -0.13124999999999995
v 0.375 0.625 -0.13125000000000006
v -0.375 1.1875 -0.13124999999999995
v -0.375 0.625 -0.13125000000000006
vt 0.375 0.71875
vt 0.375 1
vt 0 1
vt 0 0.71875
vn 0 2.220446049250313e-16 -1
usemtl m_fff77609-6613-b0da-f982-40d07388a3d3
f 1/1/1 2/2/1 4/3/1 3/4/1
o plane
v 0.40625 1.140625 -0.13124999999999995
v 0.40625 0.671875 -0.13125000000000006
v 0.375 1.1875 -0.13124999999999995
v 0.375 0.625 -0.13125000000000006
v 0.40625 1.09375 -0.13124999999999998
v 0.375 1.09375 -0.13124999999999998
v 0.390625 1 -0.13124999999999998
v 0.375 1 -0.13124999999999998
v 0.40625 0.90625 -0.13125
v 0.375 0.90625 -0.13125
v 0.390625 0.8125 -0.13125000000000003
v 0.375 0.8125 -0.13125000000000003
v 0.40625 0.71875 -0.13125000000000003
v 0.375 0.71875 -0.13125000000000003
vt 0 0.6875
vt 0 0.640625
vt 0.015625 0.640625
vt 0.015625 0.6640625
vt 0.015625 0.4296875
vt 0.015625 0.453125
vt 0 0.453125
vt 0 0.40625
vt 0.015625 0.453125
vt 0.0078125 0.5
vt 0 0.5
vt 0 0.453125
vt 0.0078125 0.5
vt 0.015625 0.546875
vt 0 0.546875
vt 0 0.5
vt 0.015625 0.546875
vt 0.0078125 0.59375
vt 0 0.59375
vt 0 0.546875
vt 0.0078125 0.59375
vt 0.015625 0.640625
vt 0 0.640625
vt 0 0.59375
vn 0 2.220446049250313e-16 -1
vn 0 4.440892098500626e-16 -1
vn 0 2.220446049250313e-16 -1
vn 0 2.220446049250313e-16 -1
vn 0 2.220446049250313e-16 -1
vn 0 2.220446049250313e-16 -1
usemtl m_fff77609-6613-b0da-f982-40d07388a3d3
f 8/5/2 18/6/2 17/7/2 6/8/2
f 5/9/3 9/10/3 10/11/3 7/12/3
f 9/13/4 11/14/4 12/15/4 10/16/4
f 11/17/5 13/18/5 14/19/5 12/20/5
f 13/21/6 15/22/6 16/23/6 14/24/6
f 15/25/7 17/26/7 18/27/7 16/28/7
o plane
v -0.40625 1.140625 -0.13124999999999995
v -0.40625 0.671875 -0.13125000000000006
v -0.375 1.1875 -0.13124999999999995
v -0.375 0.625 -0.13125000000000006
v -0.40625 1.09375 -0.13124999999999998
v -0.375 1.09375 -0.13124999999999998
v -0.390625 1 -0.13124999999999998
v -0.375 1 -0.13124999999999998
v -0.40625 0.90625 -0.13125
v -0.375 0.90625 -0.13125
v -0.390625 0.8125 -0.13125000000000003
v -0.375 0.8125 -0.13125000000000003
v -0.40625 0.71875 -0.13125000000000003
v -0.375 0.71875 -0.13125000000000003
vt 0.0625 0.640625
vt 0.078125 0.640625
vt 0.078125 0.6875
vt 0.0625 0.6640625
vt 0.078125 0.453125
vt 0.0625 0.453125
vt 0.0625 0.4296875
vt 0.078125 0.40625
vt 0.078125 0.5
vt 0.0703125 0.5
vt 0.0625 0.453125
vt 0.078125 0.453125
vt 0.078125 0.546875
vt 0.0625 0.546875
vt 0.0703125 0.5
vt 0.078125 0.5
vt 0.078125 0.59375
vt 0.0703125 0.59375
vt 0.0625 0.546875
vt 0.078125 0.546875
vt 0.078125 0.640625
vt 0.0625 0.640625
vt 0.0703125 0.59375
vt 0.078125 0.59375
vn 0 2.220446049250313e-16 -1
vn 0 4.440892098500626e-16 -1
vn 0 2.220446049250313e-16 -1
vn 0 2.220446049250313e-16 -1
vn 0 2.220446049250313e-16 -1
vn 0 2.220446049250313e-16 -1
usemtl m_fff77609-6613-b0da-f982-40d07388a3d3
f 31/29/8 32/30/8 22/31/8 20/32/8
f 24/33/9 23/34/9 19/35/9 21/36/9
f 26/37/10 25/38/10 23/39/10 24/40/10
f 28/41/11 27/42/11 25/43/11 26/44/11
f 30/45/12 29/46/12 27/47/12 28/48/12
f 32/49/13 31/50/13 29/51/13 30/52/13